<?xml version="1.0" standalone="no"?>
<!DOCTYPE svg PUBLIC "-//W3C//DTD SVG 20010904//EN"
 "http://www.w3.org/TR/2001/REC-SVG-20010904/DTD/svg10.dtd">
<svg version="1.0" xmlns="http://www.w3.org/2000/svg"
 width="196.000000pt" height="196.000000pt" viewBox="0 0 196.000000 196.000000"
 preserveAspectRatio="xMidYMid meet">
<metadata>
Created by potrace 1.11, written by Peter Selinger 2001-2013
</metadata>
<g transform="translate(0.000000,196.000000) scale(0.100000,-0.100000)"
fill="#000000" stroke="none">
<path d="M917 1944 c-1 -1 -29 -6 -62 -9 -133 -16 -294 -77 -422 -162 -78 -51
-205 -180 -259 -263 -66 -102 -119 -227 -139 -325 -3 -16 -9 -43 -12 -60 -9
-37 -8 -270 1 -307 3 -16 8 -38 10 -50 12 -63 52 -172 91 -245 211 -400 667
-601 1106 -488 304 79 568 326 669 626 46 137 66 323 46 434 -25 140 -41 193
-91 300 -68 146 -191 288 -331 381 -168 112 -331 163 -542 168 -34 1 -64 1
-65 0z m578 -389 c80 -46 141 -127 159 -211 7 -33 7 -34 -213 -192 -38 -27
-41 -32 -25 -38 107 -34 219 -129 260 -219 22 -47 26 -67 21 -111 -3 -29 -13
-70 -23 -91 -19 -40 -219 -359 -239 -381 -10 -12 -25 -4 -81 42 -100 81 -222
141 -329 161 -110 21 -253 -8 -345 -70 -29 -19 -54 -35 -57 -35 -11 0 46 71
102 125 109 107 210 146 358 141 129 -5 236 -43 370 -128 55 -35 50 -37 93 46
55 105 24 213 -77 276 -54 33 -118 60 -212 91 l-59 19 -54 -57 -55 -57 -72 72
-71 72 37 38 37 38 0 119 c0 101 -3 125 -20 152 -34 57 -51 58 -119 11 l-61
-42 1 -124 0 -124 31 -30 c34 -33 37 -27 -54 -118 l-56 -57 -70 70 -69 69 36
37 37 38 -1 119 c0 65 -5 130 -9 143 -8 24 -43 60 -59 61 -15 0 -127 -81 -128
-93 0 -7 0 -63 0 -125 l0 -112 30 -26 c17 -14 31 -29 31 -34 0 -10 -123 -140
-133 -140 -4 0 -39 32 -77 70 l-71 71 33 31 33 31 1 120 1 119 -44 46 -44 45
68 69 67 68 53 -52 c29 -29 53 -61 53 -71 0 -14 21 -4 102 52 l101 70 36 -15
c35 -14 91 -68 91 -89 0 -5 4 -16 9 -23 6 -10 32 3 107 56 l99 70 36 -18 c36
-19 64 -52 86 -103 l12 -28 113 82 c62 45 120 88 128 95 17 16 39 11 95 -21z"/>
<path d="M1229 1371 l-65 -49 -1 -113 c-1 -119 8 -155 34 -145 25 10 253 179
253 188 0 35 -94 158 -121 158 -4 0 -13 2 -21 5 -7 2 -43 -17 -79 -44z"/>
</g>
</svg>
